<svg xmlns="http://www.w3.org/2000/svg" id="Calque_2" data-name="Calque 2" viewBox="0 0 400 187.49"><defs><style>      .cls-1, .cls-2 {        fill: #2a1a19;        stroke-width: 0px;      }      .cls-2 {        fill-rule: evenodd;      }    </style></defs><g id="Calque_1-2" data-name="Calque 1"><g id="g3340"><path id="path4" class="cls-2" d="m54.03,69.43C64.74,29.44,101.22,0,144.59,0s80.53,29.99,90.86,70.54l-37.69.02-4.34-9.98s7.41-6.92,9.32-9c3.24-3.53,1.17-5.61-.62-7.6-1.79-2-5.18-5.84-7.43-8.07-2.25-2.22-4.89-4.18-8.28-.14-.85,1.01-8.97,9.14-8.97,9.14l-21.21-9-.04-13.88c0-3.88-1.91-4.32-4.69-4.36s-10.08,0-12.61,0-5.01.65-5.01,4.69c0,4.24.11,13.71.11,13.71l-21.57,8.69-10-9.46c-3.09-2.78-5.15-.97-6.75.67-1.59,1.64-6.33,6.68-7.7,8.05s-3.39,4.04-.69,7.26c3.15,3.15,9.46,9.46,9.46,9.46l-4.23,8.8-38.48-.11h0Zm38.53,48.41l4.19,9.31c-7.9,7.76-8.3,8.43-8.94,9.05-3.66,3.56-1.72,5.85-.48,7.06,1.55,1.52,7.58,7.46,8.89,8.73,1.72,1.67,4.2,3.07,6.9.27,2.17-2.17,9.46-9.43,9.46-9.43l21.41,9s-.05,8.89,0,13.26c.05,4.36,2.31,4.95,4.25,4.9s11.8.05,13.41,0,4.2-.05,4.52-4.9v-13.41l21.57-8.69,24.93,24.36c-15.97,12.61-36.15,20.15-58.08,20.15-43.55,0-80.16-29.7-90.7-69.95l38.66.3h0Z"></path><path id="path6" class="cls-1" d="m0,75.76h31.91c8.84,0,13.13,2.4,13.13,9.49,0,6.19-2.25,7.39-5.35,8.29v.15c4.84.6,6.64,3.19,6.64,8.64,0,7.94-4.69,9.59-11.04,9.59H0v-36.16h0Zm11.09,14.33h19.63c2.05,0,3.25-.75,3.25-2.8s-1.2-2.85-3.25-2.85H11.09v5.64h0Zm0,13.13h19.88c2.4,0,4-.55,4-2.65,0-2.45-1.6-3-4-3H11.09v5.64Zm41.95-27.47h39.55v8.39h-28.47v5.79h26.97v7.49h-26.97v5.79h29.12v8.69h-40.2v-36.16Zm43.75,0h42.25v8.99h-15.58v27.17h-11.09v-27.17h-15.58v-8.99h0Zm46.6,0h11.09v12.88h23.37v-12.88h11.09v36.16h-11.09v-13.69h-23.37v13.69h-11.09v-36.16h0Zm52.54,0h39.56v8.39h-28.47v5.79h26.97v7.49h-26.97v5.79h29.12v8.69h-40.21v-36.16h0Zm45.76,24.32h11.09c.05,3.85,1.6,4.15,4.8,4.15h13.58c2.35,0,4.74-.25,4.74-3.05,0-3.15-1.3-3.35-15.58-3.35-16.68,0-18.58-2-18.58-10.89,0-6.54.6-11.59,14.58-11.59h15.48c12.78,0,13.98,4.34,13.98,10.69v1.15h-11.09c0-2.65-.3-3.75-5.4-3.75h-12.28c-2.5,0-4.2.85-4.2,2.8,0,3.15,1.35,3.25,13.23,3.2,17.23-.05,21.22,1,21.22,11.54,0,9.74-3.29,11.34-18.03,11.34h-13.43c-10.09,0-14.13-1.9-14.13-9.74v-2.5h0Zm52.84-24.32h33.46c11.09,0,14.98,3.65,14.98,12.59v10.99c0,8.94-3.9,12.59-14.98,12.59h-33.46v-36.16h0Zm11.09,26.87h19.68c4.75,0,6.59-1.35,6.59-6.49v-4.89c0-5.14-1.85-6.49-6.59-6.49h-19.68v17.88Zm60.08-26.87h14.43l19.88,36.16h-12.34l-3.44-6.39h-22.47l-3.25,6.4h-12.39l19.58-36.16h0Zm.2,21.97h14.18l-7.19-13.58-6.99,13.58h0Zm-201.23,32.94c0,4.58-1.49,6.21-5.7,6.21h-9.4c-4.56,0-6-2.05-6-6.31v-4.61c0-4.26,1.44-6.31,6.01-6.31h8.61c3.03,0,6.26.74,6.26,4.63v.6h-2.14c0-3.14-.95-3.37-6.59-3.37h-5.91c-2.19,0-3.96.65-3.96,3.58v6.33c0,2.93,1.77,3.58,3.96,3.58h8.92c2.28,0,3.68-.79,3.68-3.12v-1.7h-8.63v-1.86h10.91v2.33h0Zm12.15-10.82h2.84l10,16.85h-2.58l-2.09-3.56h-13.5l-2.09,3.56h-2.58l10.01-16.85h0Zm1.42,1.86l-5.66,9.57h11.31l-5.66-9.56h0Zm14.1-1.86h3.56l9.85,14.13,9.85-14.13h3.56v16.85h-2.28v-14.8h-.05l-10.27,14.8h-1.63l-10.27-14.8h-.05v14.8h-2.28v-16.85h0Zm31.15,0h16.55v1.86h-14.27v5.38h13.71v1.86h-13.71v5.89h14.36v1.86h-16.64v-16.85Zm31.37,11.54h2.14v1.19c0,1.65.88,2.44,3.72,2.44h7.08c3.3,0,4.28-.7,4.28-3.12,0-2.12-.84-2.65-3.68-2.65h-4.33c-6.96,0-9.24-.42-9.24-4.89,0-3.84,2.28-4.7,6.98-4.7h4.91c5.65,0,7.07,1.44,7.07,4.45v.58h-2.14c-.05-2.68-.33-3.17-6.31-3.17h-2.42c-4.4,0-5.96.23-5.96,3,0,2,.63,2.68,4.19,2.68h6.75c4.44,0,6.31,1.28,6.31,4.14v1.09c0,4.14-3.4,4.45-6.78,4.45h-6.33c-3.33,0-6.26-.58-6.26-4.26v-1.23h0Zm30.3-9.68h-8.52v-1.86h19.32v1.86h-8.52v14.99h-2.28v-14.99h0Zm13.66-1.86h2.28v12.59c0,1.63.56,2.59,3.65,2.59h7.91c3.1,0,3.65-.95,3.65-2.58v-12.59h2.28v12.61c0,3.42-1.72,4.42-6,4.42h-7.77c-4.28,0-6-1-6-4.42v-12.61h0Zm24.11,0h13.62c5.66,0,7.19,1.77,7.19,8.43,0,6.19-1.54,8.43-7.26,8.43h-13.55v-16.85h0Zm18.53,7.61c0-4.86-1.51-5.75-4.31-5.75h-11.94v13.13h11.57c2.77,0,4.68-.61,4.68-5.66v-1.72h0Zm6.38-7.61h2.28v16.85h-2.28v-16.85Zm6.84,6.12c0-4.26,1.44-6.31,6.01-6.31h9.7c4.56,0,6.01,2.05,6.01,6.31v4.61c0,4.26-1.44,6.31-6.01,6.31h-9.7c-4.56,0-6.01-2.05-6.01-6.31v-4.61h0Zm19.43-.86c0-2.93-1.77-3.58-3.96-3.58h-9.24c-2.19,0-3.96.65-3.96,3.58v6.33c0,2.93,1.77,3.58,3.96,3.58h9.24c2.19,0,3.96-.65,3.96-3.58v-6.33h0Zm5.89,6.28h2.14v1.19c0,1.65.88,2.44,3.72,2.44h7.08c3.3,0,4.28-.7,4.28-3.12,0-2.12-.84-2.65-3.68-2.65h-4.33c-6.96,0-9.24-.42-9.24-4.89,0-3.84,2.28-4.7,6.98-4.7h4.91c5.66,0,7.08,1.44,7.08,4.45v.58h-2.14c-.05-2.68-.33-3.17-6.31-3.17h-2.42c-4.4,0-5.96.23-5.96,3,0,2,.63,2.68,4.19,2.68h6.75c4.44,0,6.31,1.28,6.31,4.14v1.09c0,4.14-3.4,4.45-6.77,4.45h-6.33c-3.32,0-6.26-.58-6.26-4.26v-1.23h0Zm10.1-52.19c0-2.46,1.98-4.43,4.43-4.43s4.43,1.98,4.43,4.43-1.99,4.43-4.43,4.43-4.43-1.98-4.43-4.43h0Zm7.86,0c0-1.9-1.55-3.42-3.42-3.42s-3.42,1.52-3.42,3.42,1.51,3.42,3.42,3.42,3.42-1.53,3.42-3.42h0Zm-1.21,2.43h-1.14l-1.07-1.97h-.9v1.97h-1.01v-4.8h2.4c1.11,0,1.86.2,1.86,1.46,0,.88-.45,1.25-1.3,1.3l1.16,2.03h0Zm-1.7-2.74c.54.01.83-.12.83-.72,0-.57-.61-.57-1.07-.57h-1.16v1.29h1.41Z"></path></g></g></svg>