<svg xmlns="http://www.w3.org/2000/svg" id="Calque_2" data-name="Calque 2" viewBox="0 0 510.59 139.58"><defs><style>      .cls-1 {        fill: #2a1a19;        stroke-width: 0px;      }    </style></defs><g id="Calque_1-2" data-name="Calque 1"><g><path class="cls-1" d="m93.45,122.84c2.83,8.59.58,10.46-6.48,12.63-9.61,2.96-19.6,3.63-29.55,3.92-13.28.38-26.6.4-39.78-1.73-3.92-.64-7.85-1.5-11.63-2.7-5.5-1.75-6.49-3.52-5.84-9.18,1.26-10.97,5.54-20.13,14.76-26.99,7.08-5.26,13.04-11.77,16.57-20.09,2.46-5.8,3.03-9.29,2.69-16.88-1.15-.17-2.38-.44-3.62-.5-1.82-.09-3.66-.02-5.48-.03-5.26-.02-6.66-1.28-7.31-6.41-.27-2.15.16-3.68,2.26-4.94,4.38-2.63,8.56-5.61,13.1-8.63-1.33-1.66-2.44-3.03-3.52-4.41-7.89-10.06-6.38-24.18,3.39-31.93,9.8-7.77,24.04-6.23,32.21,3.47,6.32,7.5,6.4,20.12.15,28.14-1.11,1.43-2.39,2.73-3.96,4.51,2.33,1.68,4.55,3.28,7.15,5.15-10.32,13.69-14.14,28.66-8.75,45.2,5.42,16.62,17.39,26.48,33.62,31.4Z"></path><path class="cls-1" d="m192.54,114.9c-5.59.62-10.8.5-16.56.08-.18-2-.46-3.73-.47-5.47-.05-8.1.03-16.21-.06-24.31-.03-2.63-.23-5.3-.71-7.88-.84-4.53-3.16-6.78-6.97-7.24-5.4-.65-9.64,1.04-11.25,5.26-1.21,3.18-1.96,6.69-2.08,10.08-.29,8.26-.07,16.53-.11,24.8-.02,4.75-.31,4.99-5.14,5.06-2.82.04-5.65.08-8.47-.02-3.33-.12-3.91-.78-4.11-4.21-.04-.66-.01-1.32-.01-1.98,0-21.83,0-43.65,0-65.48,0-.99,0-1.98.03-2.98.06-2.21,1.15-3.3,3.44-3.27,3.49.05,6.98-.06,10.47.03,3.33.08,3.73.45,3.78,3.75.09,5.12.03,10.25.03,15.38,0,1.14,0,2.28,0,4.12,1.25-.77,1.94-1.26,2.69-1.65,8.9-4.71,17.95-4.82,26.61.16,5.28,3.03,7.97,8.38,8.75,14.36.49,3.75.37,7.59.39,11.39.05,8.27.03,16.54,0,24.8,0,1.62-.15,3.23-.26,5.23Z"></path><path class="cls-1" d="m128.42,49.99c0,1.65.08,3.31-.02,4.96-.22,3.77-1.93,4.7-5.13,2.47-5.46-3.8-11.48-4.96-17.97-4.37-13.38,1.24-22.93,13.15-21.13,26.32,2.62,19.15,22.36,28.03,38.62,17.36.55-.36,1.03-.85,1.62-1.15,1.93-.98,3.64-.45,3.76,1.54.27,4.44.3,8.92-.01,13.35-.07,1.02-1.79,2.25-3.01,2.81-6.01,2.72-12.42,3.63-18.96,3.34-13.44-.6-24.84-5.43-33.18-16.34-11.67-15.26-10.67-42.87,9.88-55.88,13.13-8.31,27.07-9.05,41.54-4.21,3.57,1.19,3.85,1.7,3.98,5.33.05,1.49,0,2.97,0,4.46Z"></path><path class="cls-1" d="m258.16,90.19h-40.11c.63,7.1,5.97,12.14,12.92,12.58,5.18.33,10.24-.16,15.11-2.29,4.94-2.16,5-2.04,7.35,3.02.49,1.05.95,2.11,1.42,3.17,1.83,4.12,1.68,4.72-2.39,6.15-9.57,3.36-19.41,4.47-29.42,2.58-12.39-2.34-21.4-12.46-22.53-25.1-.21-2.3-.12-4.62-.18-6.93-.35-14.04,11.74-27.12,26.96-27.63,6.26-.21,12.36.37,17.79,3.64,7.35,4.43,11.83,11.04,13.02,19.53.47,3.37.08,6.85.08,11.28Zm-16.81-10.44c.65-8.05-4.82-10.88-11.79-10.8-8.13.09-11.67,3.35-11.57,10.8h23.35Z"></path><path class="cls-1" d="m269.58,99.28c2.19.8,3.72,1.35,5.25,1.92,5.69,2.12,11.58,2.97,17.61,2.33,1.94-.21,3.87-.89,5.69-1.62,1.7-.68,2.42-2.16,2.27-4.02-.14-1.72-1.16-2.75-2.72-3.15-2.89-.75-5.8-1.39-8.71-2.01-4.05-.86-8.18-1.44-12.16-2.54-8.76-2.43-12.84-7.26-13.25-15.19-.36-6.96,4.41-13.89,11.69-16.86,9.75-3.98,19.75-3.9,29.83-1.52,2.09.49,4.16,1.17,6.16,1.95,3.21,1.26,3.57,2.11,2.46,5.24-.44,1.24-.96,2.47-1.55,3.65-2.1,4.23-2.42,4.04-7.19,3.03-6.78-1.44-13.63-3.03-20.63-.77-1.76.57-3.1,1.23-3.26,3.15-.17,2.07.85,3.55,2.81,4.17,2.37.74,4.78,1.37,7.2,1.9,4.7,1.02,9.48,1.72,14.13,2.92,7.49,1.93,11.87,6.82,12.65,13.6.84,7.25-2.76,14.31-9.65,17.47-4.01,1.84-8.39,3.27-12.75,3.9-9.49,1.37-18.91.64-27.88-3.14-3.74-1.58-4-2.33-2.28-6,1.25-2.67,2.66-5.26,4.27-8.41Z"></path><path class="cls-1" d="m363.35,71.66c-3.74-.8-7.25-1.69-10.81-2.29-4.46-.75-8.91-.62-13.34.5-1.89.48-2.98,1.35-3.13,3.25-.14,1.91.83,3.22,2.58,3.78,2.36.75,4.77,1.39,7.2,1.93,4.54,1,9.15,1.7,13.63,2.89,7.79,2.05,11.85,6.65,12.47,13.63.64,7.27-3.37,14.01-10.24,17.19-4.42,2.05-9.08,3.16-13.94,3.5-8.39.58-16.61-.11-24.49-3.23-3.7-1.47-4.04-2.26-2.31-5.95,1.17-2.51,2.06-5.58,4.07-7.15,2.27-1.78,4.88,1,7.35,1.69,5.38,1.5,10.82,1.79,16.3,1.16,4.04-.47,6.14-2.2,6.29-4.58.15-2.28-1.15-3.58-5.55-4.6-4.68-1.09-9.48-1.66-14.17-2.72-2.72-.62-5.42-1.55-7.96-2.72-9.12-4.19-11.8-17.02-2.72-25.38,3.8-3.5,8.43-5.35,13.39-6.17,9-1.5,17.89-.74,26.53,2.31.78.27,1.53.64,2.26,1.04.57.31,1.07.74,1.81,1.26-.67,4.17-2.16,7.84-5.22,10.67Z"></path><path class="cls-1" d="m488.16,115.35h-6.84c-.16-1.57-.39-2.84-.4-4.11-.04-5.46.04-10.92-.05-16.38-.03-2.14-.2-4.31-.66-6.39-.82-3.71-3.46-5.58-7.19-5.4-3.57.17-5.9,1.92-6.2,5.8-.51,6.58-.47,13.2-.67,19.81-.06,2.1-.14,4.21-.23,6.64h-6.77c-.65-12.5-.1-24.98-.32-37.49,2.9-1.21,5.35-1.42,7.61.71,6.59-2.83,12.85-3,18.48,2.73,3.49-3.35,7.48-4.87,12.25-4.59,7.09.42,11.66,3.95,12.59,10.99.71,5.38.61,10.88.77,16.32.1,3.6.02,7.2.02,11.24h-7.09c-.15-1.28-.42-2.54-.43-3.8-.05-5.96.06-11.91-.07-17.87-.05-2.12-.33-4.32-1.03-6.31-1.03-2.93-4.39-4.54-7.75-4.15-2.98.34-4.51,1.66-5.21,5.08-.49,2.41-.74,4.9-.78,7.36-.1,6.42-.04,12.85-.04,19.8Z"></path><path class="cls-1" d="m454.19,96.14c.44,11.48-7.69,19.8-18.72,20.09-10.79.28-19.22-8.37-19.29-19.64-.07-11.66,7.65-19.81,18.84-19.88,11.38-.08,19.08,7.73,19.17,19.44Zm-6.74.37c.03-5.24-2.65-10.18-6.51-12.17-4.43-2.28-8.72-1.86-12.74.85-5.35,3.6-6.77,12.81-3.05,18.87,3.25,5.31,9.5,7.15,15.18,4.49,5.18-2.43,6.76-6.93,7.12-12.04Z"></path><path class="cls-1" d="m413.03,86.46c-10.3-4.58-15.46-4.39-19.49.47-4.05,4.88-4.16,13.56-.24,18.5,2.46,3.1,5.83,4.7,9.6,4.2,3.34-.45,6.53-1.94,9.87-2.99-.06-.09.1.04.12.18,1.03,6.57.14,7.91-6.31,9.03-13.86,2.41-26.6-7.57-22.83-24.91,2.95-13.59,16.44-16.34,26.75-13.05,1.74.56,2.85,1.63,2.73,3.62-.09,1.58-.13,3.16-.2,4.95Z"></path><path class="cls-1" d="m381.99,111.14c.06,2.63-1.96,4.88-4.5,5.02-2.49.13-4.82-2.01-4.96-4.57-.15-2.71,1.73-4.72,4.53-4.85,2.81-.13,4.87,1.7,4.93,4.4Z"></path></g></g></svg>