<svg xmlns="http://www.w3.org/2000/svg" id="Calque_2" data-name="Calque 2" viewBox="0 0 424.68 174.12"><defs><style>      .cls-1 {        fill: #2a1a19;        stroke-width: 0px;      }    </style></defs><g id="Calque_1-2" data-name="Calque 1"><g><path class="cls-1" d="m9.15,13.93c1.71,1.42,3.14,2.6,4.73,3.93-1.79,2.69-4.24,2.5-6.43,2.25-2.24-.26-4.54-.86-6.55-1.85-.71-.35-1.08-2.39-.83-3.49.82-3.66,2.79-6.58,6.11-8.67C11.28,2.88,17.01,2.08,22.76,1.23c19.08-2.83,37.7-.6,56.08,4.81,15.81,4.65,31.12,10.49,45.35,18.82,16.99,9.95,31.36,22.75,41.65,39.73,3.2,5.27,5.53,10.92,7.19,16.83.48,1.72.75,3.6.62,5.37-1.02,13.83-7.05,24.98-18.38,33.14-10.5,7.56-22.47,11.14-35.17,12.65-11.47,1.36-22.87.96-34.23-1.07-1.1-.2-2.27-.03-3.47-.03-.39.64-.88,1.16-1.03,1.76-.96,3.83-3.44,5.26-7.31,5.25-4.81,0-6.17-.78-7.5-5.41-.32-1.1-.44-2.27-.54-3.42-.36-3.95-2.2-6.61-5.93-8.43-9.6-4.69-18.27-10.8-25.74-18.48-2.64-2.72-5.13-5.64-7.31-8.74-2.92-4.16-3.12-8.54,1.82-12.6,6.16-5.08,13.32-8.01,20.74-10.42,4.24-1.38,8.65-2.32,13.05-3.15,2.09-.39,2.8-1.57,3.05-3.29.56-3.93,1.02-7.87,1.52-11.81.39-3.12.66-6.25,1.2-9.35.25-1.43.88-2.85,1.56-4.15,1.32-2.52,3.19-2.93,5.03-.74,1.66,1.99,3.35,4.32,3.93,6.76,1.1,4.63,1.54,9.44,2.03,14.19.58,5.6.83,5.89,6.62,6.39,6.77.59,13.58,1,20.29,2.02,6.4.97,12.73,2.67,17.92,6.84,2.16,1.74,4.18,3.82,5.73,6.11,3.31,4.9,2.19,10.11-2.59,13.84-5.29,4.14-9.1,4.49-14.82,1.08,1.59-1.75,3.18-3.39,4.66-5.13,2.1-2.48,1.86-4.11-1.26-5.25-3.24-1.19-6.67-1.95-10.08-2.59-3.73-.7-7.52-1.16-11.31-1.49-3.96-.34-7.95-.44-11.92-.57-2.03-.07-3.06.97-3,3.05.28,10.42.56,20.85.8,31.27.04,1.77.98,2.77,2.51,3.28,1.26.41,2.56.81,3.87.92,13.12,1.08,26.24,1.43,39.09-2.13,7.76-2.15,14.7-5.95,20.8-11.29,8.08-7.05,9.64-19.4,6.11-29.34-2.54-7.16-7.09-13.05-11.97-18.7-13.12-15.19-30.09-24.77-48.26-32.49-12.23-5.19-24.76-9.48-37.95-11.63-10.52-1.72-21.08-2.55-31.74-1.97-2.99.16-5.98.26-8.96.51-2.06.17-4.22.18-6.33,1.72Zm56.05,67.53c-2.15,0-3.47-.08-4.77.01-5.45.41-10.93.63-16.33,1.4-3.58.51-7.11,1.66-10.54,2.87-3.37,1.19-3.9,3.19-1.92,6.05.75,1.08,1.6,2.11,2.54,3.03,7.03,6.99,15.38,12.01,24.42,15.92,1.54.67,3.36.69,5.13,1.03,2.46-10.21.65-19.95,1.47-30.32Z"></path><path class="cls-1" d="m387.24,63.41c2.59,2.64,1.84,5.25.85,7.38-1.94,4.17-4.17,8.23-6.68,12.08-2.95,4.52-4.23,9.42-5.06,14.51.33.21.65.42.98.63,1.73-1.67,3.72-3.15,5.15-5.05,5.95-7.88,13.55-13.99,21.24-20.01.91-.71,1.93-1.29,2.88-1.96,5.44-3.79,9.9-1.4,12.97,2.6,5.98,7.78,6.27,16.45,3.15,25.41-3.4,9.78-10.84,16-19.28,21.27-5.29,3.3-10.89,5.71-17.3,5.36-2.45-.13-3.69,1.33-4.55,3.18-.9,1.94-1.58,4-2.19,6.05-3.47,11.72-6.98,23.44-9.06,35.51-.67,3.87-1.73,4.42-5.43,3.09-5.65-2.04-9.14-8.48-8.21-15.42.39-2.95,1.08-5.85,1.6-8.78,1.96-10.92,4.96-21.56,8.95-31.91.81-2.09,1.1-3.88.15-6.11-3.67-8.61-3.11-17.3,1.34-25.35,3.99-7.22,8.71-14.07,14.73-19.86,1.1-1.06,2.54-1.78,3.77-2.61Zm26.06,18.43c-3.04.59-5.16,2.58-6.9,5.02-3.45,4.82-6.85,9.67-10.24,14.53-1.47,2.11-3.44,3.98-3.67,7.33,1.62-.13,3.12,0,4.45-.39,5.5-1.64,10.25-4.47,13.85-9.07,3.07-3.93,4.52-8.36,4.59-13.29.02-1.7-.05-3.34-2.07-4.13Z"></path><path class="cls-1" d="m211.37,82.05c6.43,1.92,12.3,2.29,18.21,2.69,5.27.36,10.58.97,15.7,2.2,2.93.7,5.82,2.48,8.18,4.43,6.88,5.69,6.18,14.48,3.85,20.05-1,2.38-3.44,4.56-5.77,5.92-14.11,8.29-28.34,8.33-42.33-.33-2.06-1.28-3.87-3.18-5.35-5.12-4.12-5.42-2.22-12.2,3.94-15.25,4.85-2.4,10.03-2.49,15.12-1.83,5.22.68,10.36,2.12,15.47,3.47,1.32.35,2.4,1.59,3.55,2.4-.36,2.6-1.85,3.91-3.73,4.63-4.27,1.63-8.66,2.26-13.1.56-1.7-.65-3.32-1.64-5.08-2-3.05-.62-6.17-.97-9.28-1.21-1.33-.1-2.64.46-2.96,2.09-.35,1.75.52,2.88,1.99,3.58,1.04.5,2.13,1.1,3.23,1.19,7.27.64,14.58,1.65,21.83.15,2.88-.6,5.68-1.71,8.42-2.84,1.16-.48,2.24-1.47,3.01-2.48,2.25-2.96,1.9-5.18-1.44-6.83-2.62-1.29-5.53-2.35-8.41-2.73-9.04-1.2-18.13-2.01-27.19-3.02-1.31-.15-2.57-.7-3.88-.8-6.93-.55-9.19-8.62-4.93-14.67,1.93-2.75,4.49-4.84,7.63-6.21,6.14-2.69,12.68-3.97,19.24-4.79,9.26-1.15,18.56-1.25,27.63,1.65.95.3,1.94.52,2.83.96,1.93.94,2.28,2.18,1.24,4.03-1.31,2.34-3.34,3.67-5.98,3.95-6.27.67-12.53,1.49-18.81,1.85-6.83.39-13.52,1.36-20.12,3.09-.72.19-1.38.62-2.68,1.23Z"></path><path class="cls-1" d="m275.55,90.59c-.31,2.75-.7,5.49-.9,8.25-.38,5.11-.54,10.24-1.04,15.34-.2,2.1-.75,4.27-1.66,6.17-1.49,3.14-4.11,3.61-7,1.62-2.68-1.84-3.87-4.59-4.08-7.64-.26-3.79-.35-7.62-.08-11.4.73-10.28,2.73-20.3,7.13-29.72.21-.45.4-.91.63-1.35,2.22-4.16,4.21-4.73,7.69-1.66,2.71,2.39,5.32,5.02,7.39,7.96,3.61,5.12,6.71,10.59,10.13,15.85,1.31,2.01,2.92,3.82,4.73,6.16,1.46-2.68.89-4.81.77-6.86-.36-6.33-2.23-12.34-3.93-18.39-1.21-4.29-2.42-8.59-3.52-12.91-.75-2.92-.18-4.62,1.62-5.74,1.95-1.21,5.09-.97,6.9.87,1.25,1.27,2.44,2.8,3.09,4.43,4.05,10.12,8.71,20.07,9.75,31.11.75,7.93,0,15.61-5.32,22.05-1.32,1.6-3.21,2.79-4.99,3.93-2.96,1.89-5.62,1.17-8.08-1.18-4.62-4.4-7.99-9.68-11.02-15.21-1.83-3.34-3.62-6.69-5.48-10.01-.37-.67-.95-1.22-1.43-1.82-.44.05-.87.1-1.31.15Z"></path><path class="cls-1" d="m349.45,64.96c1.66,0,3.32,0,4.98,0,5.1,0,8.29,3.04,10.71,6.98,1.78,2.89.89,5.22-2.44,6.03-3.69.9-7.51,1.32-11.29,1.71-2.8.29-5.67,0-8.46.33-1.35.16-2.93.84-3.82,1.82-1.93,2.14-.8,4.57,2.1,4.77,1.98.14,3.99,0,5.98.04,1.49.03,3.01,0,4.47.28,3.08.59,3.81,1.45,3.95,4.17.17,3.3-.66,4.72-3.69,5.52-1.91.51-3.92.74-5.89.85-2.48.14-4.99-.05-7.48.08-1.74.09-4.02-.74-5,1.25-1.22,2.47-1.99,5.18-2.68,7.85-.1.4,1.16,1.54,1.92,1.69,1.08.22,2.3-.09,3.44-.29,3.76-.66,7.49-1.52,11.26-2,2.09-.27,4.36-.31,6.38.22,3.67.96,4.94,4.58,2.92,7.8-.77,1.23-1.74,2.55-2.96,3.26-5.99,3.52-11.93,7.25-18.85,8.78-5.53,1.22-10.75,1.16-15.42-2.99-4.5-4-5.68-8.78-4.46-14.34.49-2.24,1.28-4.47,2.24-6.56,1.3-2.82,1.83-5.66,1.15-8.68-.54-2.39-.16-4.39,2.34-5.29,3.05-1.09,3.92-3.88,5.28-6.29,1.02-1.81.29-3.18-1.43-4.09-.88-.46-1.82-.8-2.71-1.24-.89-.43-2.03-.72-2.56-1.43-.85-1.14-1.92-2.71-1.7-3.87.2-1.04,1.9-2.22,3.15-2.55,3.04-.8,6.19-1.18,9.31-1.64,6.39-.96,12.78-1.86,19.17-2.78.02.2.05.39.07.59Z"></path><path class="cls-1" d="m198.96,11.7c4.75-.17,8.81,1.08,12.47,4.23,1.69,1.45,4.01,2.27,6.15,3.09,4.33,1.66,6.95,5.01,6.16,9.52-.58,3.34-1.56,7-3.55,9.63-6.88,9.07-15.87,15.49-27.13,18.06-3.13.71-6.58.22-9.86-.03-2.9-.22-5.43-.38-7.49,2.38-1.45,1.93-2.78,1.64-4.6-.04-1.83-1.69-2.48-3.89-2.77-6.22-.35-2.81-1.03-5.4-2.52-7.94-2.65-4.53-2.29-9.42.52-13.67,5.75-8.7,13.56-14.96,23.78-17.77,2.84-.78,5.89-.84,8.84-1.24Zm-12.95,32.62c.66.3,1.09.62,1.55.67,8.17.93,15.35-1.8,21.88-6.32,2.59-1.79,4.41-4.5,5.15-7.68.68-2.91-.86-5.13-3.81-4.92-2.73.2-5.64.76-8.04,1.99-6.42,3.3-11.44,8.36-15.85,14-.46.59-.58,1.46-.88,2.25Zm-1.57-17.98c-5.1,1.85-9.36,4.51-10.43,11.25,4.5-3.56,9.44-5.48,10.43-11.25Z"></path><path class="cls-1" d="m193.61,108.21c0,3.31.15,6.63-.04,9.93-.23,3.86-2.41,6.32-5.69,6.28-3.89-.05-6.71-1.31-7.48-5.12-.69-3.39-1.33-6.84-1.46-10.29-.44-11.94.47-23.81,2.21-35.62.24-1.63.53-3.31,1.17-4.8,1.15-2.7,4.17-3.32,5.94-1,1.55,2.03,3.15,4.54,3.39,6.97,1.09,11.19,1.7,22.42,2.49,33.64-.17,0-.35.02-.52.03Z"></path></g></g></svg>