<svg xmlns="http://www.w3.org/2000/svg" id="Calque_2" data-name="Calque 2" viewBox="0 0 410.49 191.83"><defs><style>      .cls-1 {        fill: #2a1a19;        stroke-width: 0px;      }    </style></defs><g id="Calque_1-2" data-name="Calque 1"><g><path class="cls-1" d="m410.49,52.87v6.96c-.33,1.94-.75,3.87-.99,5.82-.57,4.6-.93,9.23-1.59,13.82-2.29,15.87-8.2,30.66-13.97,45.47-5.8,14.9-13.35,28.83-23.83,41.04-6.55,7.63-14.14,13.98-23.27,18.34-16.05,7.67-32.87,8.68-50.12,5.47-11.93-2.22-22.28-7.4-30.54-16.45-.42-.46-1-.78-1.28-1-29.62,21.92-60.22,26.7-92.91,7.44-26.44,14.43-53.3,16.86-80.89,1.08-.07.02-.57.12-.99.36-15.74,9.13-32.71,11.41-50.49,8.89-10.86-1.54-20.29-6.06-27.9-14.03C2.3,166.17-.61,154.1.1,140.82c.73-13.69,4.04-26.87,8.54-39.69,6.13-17.48,12.72-34.84,21.28-51.31,5.1-9.82,10.3-19.72,16.67-28.73C60.94.78,86.83-2.8,107.4,3.68c5.62,1.77,9.55,5.6,12.34,9.6,6.56-3.12,12.49-6.47,18.78-8.84C151.54-.46,165.24-.2,178.89.19c6.03.17,11.9,1.37,17.38,3.9,4.49,2.08,8.82,4.5,13.51,6.92.09-.03.6-.1,1.01-.33C225.9,2.26,242.22-.54,259.31.34c10.53.54,20.83,2.36,30.26,7.28,4.49,2.34,8.58,5.45,12.83,8.19,20.3-14.96,42.93-18.51,67.1-12.91,19.55,4.53,32.45,16.62,38.05,35.99,1.32,4.56,1.98,9.31,2.94,13.97Zm-143.55,100.94c5.37,12.9,14.4,20.77,26.9,24.26,5.37,1.5,11.11,2.05,16.71,2.28,15.21.63,29.34-2.92,41.63-12.27,10.11-7.69,17.31-17.8,23.04-28.93,8.66-16.84,15.08-34.55,19.81-52.87,3-11.64,4.67-23.46,3.42-35.43-1.75-16.75-9.64-29.37-26.02-35.62-11.33-4.32-23.07-4.16-34.84-2.72-9.21,1.13-17.73,4.36-25.22,9.84-4.33,3.17-8.32,6.81-12.63,10.38-4.83-9.43-12.79-15.45-22.6-18.24-20.51-5.83-40.73-4.93-59.97,5.17-3.18,1.67-6.09,3.85-9.38,5.96-7.54-10.08-18.33-13.45-30.02-14.49-8.96-.8-17.9.03-26.78,1.57-11.46,1.99-21.49,6.66-29.51,15.21-1.99,2.12-3.79,4.42-6.05,7.08-.15-1.48-.22-2.28-.3-3.08-1.07-11.01-6.66-17.24-17.59-18.99-4.23-.68-8.59-.83-12.89-.77-12.32.16-22.35,5.41-29.22,15.39-5.41,7.87-10,16.39-14.25,24.97-10.64,21.53-20.07,43.58-26.37,66.83-2.7,9.97-4.47,20.09-3.36,30.44,1.19,11.08,6.52,19.72,16.48,25.06,13.76,7.38,28.26,6.12,42.73,2.87,7.98-1.8,15.02-5.82,20.97-11.44,17.88,19.97,61.28,18.43,80.96-1.58,4.68,5.28,10.15,9.58,16.8,12.02,19.07,6.98,37.52,4.81,55.3-4.38,8.49-4.39,15.62-10.55,22.25-18.53Z"></path><path class="cls-1" d="m385.53,59.14c-.42,14.16-3.16,27.93-8.38,41.09-4.56,11.51-9.39,22.94-14.64,34.16-3.8,8.13-9.15,15.38-16,21.31-11.55,10.01-25.3,12.63-40.05,11.05-4.24-.45-8.55-1.52-12.48-3.15-10.69-4.42-15.4-13.16-16-24.25-.73-13.42,2.1-26.44,6.23-39.03,4.32-13.18,9.31-26.19,14.79-38.94,5.15-11.95,11.9-23.09,23.83-29.69,14.95-8.28,30.78-9.2,46.6-3.29,10.28,3.84,14.87,12.7,16.05,23.29.27,2.45.04,4.96.04,7.45Zm-32.96,4.96c.31-8.73-3.26-11.45-9.12-9.81-4.63,1.3-6.91,4.91-8.78,8.85-7.99,16.89-14.74,34.26-20,52.19-1.24,4.24-1.96,8.75-2.07,13.16-.13,5.24,3.81,7.79,8.81,5.99,2.06-.74,4.16-2.16,5.54-3.83,1.97-2.39,3.66-5.15,4.84-8.02,5.01-12.21,10.08-24.41,14.55-36.83,2.84-7.89,4.66-16.14,6.23-21.7Z"></path><path class="cls-1" d="m238.8,113c-1.89-.65-3.78-1.2-5.6-1.94-5.09-2.07-7.11-6.64-5.28-11.75,3.73-10.39,10-15.03,21.27-15.55,3.48-.16,6.99-.26,10.45.07,8.99.86,14.2,6.41,14.33,15.4.17,11.7-3.46,22.51-8.69,32.79-6.96,13.69-16.87,24.63-31.29,30.69-12.64,5.31-25.66,6.54-38.84,1.71-8.68-3.18-14.27-9.29-17.21-17.99-3.19-9.45-2.32-18.94-.52-28.46,3.25-17.18,9.35-33.41,16.71-49.2,3.99-8.57,8.57-16.78,14.56-24.19,8.89-10.99,20.33-17.48,34.26-19.16,10.25-1.24,20.51-1.15,30.54,2.27,12.26,4.18,18.16,14.08,15.61,26.7-1.13,5.57-2.59,10.97-6.63,15.27-6.58,7.03-14.73,8.57-23.7,6.34-5.61-1.4-7.78-5.16-6.76-10.89.34-1.94,1.2-3.78,1.65-5.71.82-3.59-.45-5.41-4.07-5.86-4.96-.62-9.56.69-12.45,4.7-3.55,4.93-6.89,10.17-9.32,15.71-5.97,13.62-11.85,27.33-15.23,41.89-.85,3.68-1.47,7.5-1.48,11.25-.02,5.13,2.72,7.4,7.92,7.44,5.66.04,9.68-2.99,13.07-7.09,3.44-4.16,5.57-8.95,6.7-14.44Z"></path><path class="cls-1" d="m154.4,60.69c-2.66,5.47-5.23,10.76-8.31,17.1,3.29-.21,5.5-.56,7.68-.45,4.77.24,9.64.22,14.26,1.23,5.91,1.29,8.31,5.56,7.52,11.55-1.18,9.03-8.43,16.4-17.88,18.35-6.65,1.37-13.23.61-19.81-.42-.65-.1-1.3-.16-2.67-.32-2.07,6.66-4.16,13.35-6.54,21,3.58-.68,6.24-1.49,8.95-1.65,6.1-.36,12.26-.89,18.32-.45,6.56.48,11.31,4.48,12.14,9.35.82,4.8.42,9.54-1.75,14.06-2.08,4.35-5.22,7.81-9.34,10.05-13.06,7.1-26.89,9.36-41.36,5.16-14.79-4.29-22.3-16.03-21.13-31.84.86-11.61,2.87-23.09,6.95-33.97,5.57-14.85,11.7-29.51,18.09-44.03,3.27-7.42,7.98-14.14,13.98-19.78,9.15-8.6,20.63-10.85,32.58-11.56,7.31-.43,14.56-.25,21.52,2.75,5.62,2.42,9.94,6,10.09,12.31.17,6.96-2.62,12.86-8.89,16.71-6.83,4.2-14.55,4.24-22.13,4.79-3.8.28-7.63.05-12.28.05Z"></path><path class="cls-1" d="m63.27,127.29c6.29.37,12.12.21,17.75,1.18,6.81,1.17,9.62,6.43,8.56,13.23-2.01,12.97-9.97,20.07-22.21,23.08-9.48,2.33-19,3.12-28.51.1-8.8-2.79-14.42-9.56-14.14-18.81.22-7.21,1.25-14.54,3.02-21.55,5.99-23.67,15.78-45.94,26.54-67.77,3.29-6.67,6.88-13.23,10.9-19.48,6.08-9.47,15.19-12.9,26.2-11.45,6.03.79,9.3,4.24,9.39,10.27.04,3.09-.52,6.28-1.35,9.28-4.61,16.67-12.12,32.18-19.51,47.72-5.11,10.75-10.49,21.37-15.74,32.06-.35.71-.62,1.46-.9,2.14Z"></path></g></g></svg>