<svg xmlns="http://www.w3.org/2000/svg" id="Calque_2" data-name="Calque 2" viewBox="0 0 393.92 160.98"><defs><style>      .cls-1 {        fill: #2a1a19;        stroke-width: 0px;      }    </style></defs><g id="Calque_1-2" data-name="Calque 1"><g><path class="cls-1" d="m393.92,0c0,53.49,0,106.75,0,160.02-3.47.97-384.26,1.38-393.91.39V0h393.92Zm-3.39,157.37c1.04-4.67.97-150.38-.08-154.62-.72-.06-1.52-.17-2.33-.17-128.14.05-256.28.12-384.42.19-.13,0-.26.17-.38.28-.12.11-.23.24-.25.27v154.05h387.45Z"></path><path class="cls-1" d="m163.47,15.02c1.87-.11,3.32-.29,4.77-.26,8.46.2,16.97-.03,25.37.8,11.1,1.09,19.33,7.33,25.57,16.33.38.54.74,1.1,1.13,1.62.08.11.29.13,1.03.44-.74-6.37-1.44-12.44-2.19-18.88h23.72c2.32,12.27,3.63,24.88,5.34,37.43,1.72,12.61,3.59,25.2,5.72,37.85,4.51-24.95,7.13-50.19,11.25-75.38h66.24v23.76h-20.32c-1.1,4.01-1.36,21.5-.51,29.45,6.75.84,13.69-.18,20.84.62v22.43h-20.94v30.15h20.38c1.05,4.04,1.21,17.79.34,23.35h-43.99V31.59c-.34-.03-.68-.06-1.01-.09-6.05,37.58-12.1,75.17-18.26,113.4-9.06.32-18.1.23-27.68.12-4.31-25.59-8.59-50.97-13.03-77.25-1.25,4.1-1.96,7.32-3.21,10.3-1.27,3.03-2.84,6.01-4.73,8.7-1.97,2.82-4.48,5.26-6.82,7.95,4.85,16.48,9.7,32.96,14.77,50.17-7.9.36-15.41.14-23.3.13-3.82-14.44-7.57-28.61-11.37-43.01-1.68.11-3.12.21-5.19.35-.34,14.14.09,28.12-.23,42.39h-44.99c-.97-6.39-1.93-12.73-2.99-19.67-5.8-.36-11.7-.18-18.03-.13-1.02,6.65-2.01,13.12-3.04,19.82h-45.61c-.24-9.78-.08-19.48-.11-29.17-.03-9.77,0-19.54-.68-29.41-3.3,19.43-6.59,38.87-9.93,58.57h-12.74c-3.24-18.98-6.46-37.83-9.67-56.69-.28.01-.56.02-.83.04v56.63H15.32c-.93-3.78-1.1-124.13-.14-129.7h29.51c3.35,21.27,6.69,42.43,10.03,63.6.38.01.77.03,1.15.04,3.43-21.15,6.86-42.3,10.33-63.67h30.13c.12,37.76-.02,75.43.89,113.16,5.71-37.61,11.43-75.22,17.18-113.1h31.46c5.59,36.6,11.19,73.27,16.79,109.94.28-.02.55-.04.83-.06V15.02Zm24.08,23.71v40.34c7.13-.42,11.57-3.63,13.65-9.84,2.27-6.8,2.18-13.67,0-20.47-1.93-6.05-6.84-9.63-13.66-10.03Zm-56.91,14.59c-.3.09-.6.18-.9.26-2.01,16.66-4.02,33.31-6.05,50.14h13.22c-2.13-17.09-4.2-33.75-6.28-50.41Z"></path><path class="cls-1" d="m336.2,14.93h22.99c.43,11.83.11,23.5.13,35.16.02,11.75.1,23.5.12,35.25.02,11.74,0,23.47,0,35.72,6.62.78,13.07-.06,19.78.54v23.09h-43.03V14.93Z"></path></g></g></svg>