<svg xmlns="http://www.w3.org/2000/svg" id="Calque_2" data-name="Calque 2" viewBox="0 0 369.89 299.16"><defs><style>      .cls-1 {        fill: #2a1a19;        stroke-width: 0px;      }    </style></defs><g id="Calque_1-2" data-name="Calque 1"><g><path class="cls-1" d="m187.61,95.41c-1.03,1.64-2.21,3.21-3.06,4.94-7.14,14.58-14,29.3-21.39,43.75-4.29,8.39-9.48,16.29-16.35,22.95-11.76,11.41-33.94,12.97-47.16-1.06-9.76-10.35-15-22.9-17.95-36.53-4.84-22.4-5.53-45.12-3.94-67.87.9-12.89,2.78-25.76,8.76-37.56,4.57-9.02,11.09-15.59,21.69-17.09,15.09-2.14,25.88,5.23,29.28,18.35,1.03,3.98,1.87,8.14,1.9,12.23.07,7.95-.49,15.9-.79,23.85-.07,1.93-.18,3.85-.32,6.84,5.56-8.36,10.34-15.88,15.45-23.16,8.4-11.97,17.3-23.57,28.62-33,3.92-3.26,8.22-6.2,12.73-8.59,10.76-5.7,24.79-4.48,32.69,4.19,3.31,3.64,5.58,7.89,6.84,12.54,2.67,9.87,3.38,19.92,1.94,30.09-.24,1.73-.36,3.48.2,5.49,3.43-4.2,6.82-8.43,10.31-12.58,8.68-10.32,18.1-19.88,29.01-27.88,5.11-3.75,10.42-7.13,16.64-8.71,5.1-1.3,10.15-1.43,15.04,1.04,4.57,2.31,6.9,5.97,7.32,11.01.54,6.48-1.92,11.99-5.35,17.23-7.73,11.78-15.68,23.42-23.09,35.4-10.73,17.36-19.7,35.68-28.55,54.04-3.25,6.73-6.61,13.35-11.84,18.87-7.8,8.24-23.94,13.56-37.07,7.27-8.81-4.22-13.48-11.31-17.02-19.71-2.82-6.69-3.5-13.8-3.76-20.94-.18-5.07-.04-10.15-.04-15.23-.24-.07-.49-.14-.73-.21Z"></path><path class="cls-1" d="m150.33,229.19h21.13c.05-4.13,0-8.2.17-12.27.15-3.85,2.01-5.45,5.67-5.18,2.96.22,4.1,1.28,4.27,4.38.15,2.65.05,5.31.05,7.97,0,1.62,0,3.23,0,5.36,2.81,0,5.09-.04,7.37,0,4.34.09,5.6,1.11,5.65,4.48.05,3.65-1.19,4.68-5.85,4.77-2.13.04-4.27,0-6.28,0-.39.83-.77,1.26-.78,1.7-.06,9.13-.14,18.26-.07,27.39.02,3.3.87,4.04,4.14,4.28,1.65.12,3.33-.06,4.98.11,2.76.29,3.84,1.78,3.75,4.81-.08,2.81-1.05,4.11-3.76,4.26-3.14.17-6.35.3-9.45-.12-4.72-.63-7.73-3.69-9.09-8.14-.57-1.86-.59-3.93-.61-5.9-.07-7.64-.03-15.27-.03-22.91,0-1.62,0-3.25,0-5.17h-21.04c-.17,1.12-.47,2.21-.47,3.29-.04,8.13-.06,16.27,0,24.4.03,4.81.52,5.23,5.53,5.4,1,.03,2.01-.06,2.98.1,2.6.41,4.01,2.27,3.83,4.91-.16,2.44-1.5,4-4.06,4.14-2.98.16-6.01.25-8.95-.12-5.07-.64-9.02-5.37-9.1-10.83-.13-8.47-.04-16.93-.05-25.4,0-1.81,0-3.61,0-6.01-2.59-.08-4.85-.06-7.11-.23-3.03-.22-4.61-1.94-4.57-4.76.04-2.57,1.55-4.15,4.37-4.43,1.15-.12,2.32-.02,3.49-.05.99-.02,1.98-.08,3.49-.15.11-1.44.29-2.85.31-4.26.05-2.66-.03-5.31.03-7.97.09-4.05,1.29-5.34,4.8-5.33,3.38.01,4.77,1.46,4.96,5.42.12,2.48,0,4.98.05,7.47.03,1.45.17,2.89.27,4.57Z"></path><path class="cls-1" d="m19.33,266.95c1.22-4.17,2.22-7.29,3.04-10.46,1.9-7.37,3.69-14.77,5.58-22.15.93-3.59,2.51-4.72,6.47-4.89,4.85-.2,6.41.54,7.57,4.57,2.11,7.31,3.92,14.71,5.89,22.06.76,2.86,1.61,5.69,3.36,8.74.52-1.72,1.08-3.42,1.54-5.16,2.19-8.33,4.3-16.67,6.53-24.98,1.11-4.13,3.08-5.48,7.14-5.23,3.32.21,4.38,1.61,3.45,4.84-3.21,11.14-6.47,22.26-9.71,33.39-.65,2.22-1.25,4.46-1.86,6.69-1.51,5.56-3.01,6.97-7.47,6.97-4.47,0-5.55-.95-7.19-6.56-2.64-9.06-5.23-18.14-7.85-27.2-.14-.47-.29-.94-.73-2.37-.93,2.89-1.68,4.97-2.26,7.08-2.12,7.66-4.12,15.35-6.32,22.99-1.43,4.99-2.84,6.05-7.13,6.07-4.12.01-5.53-.91-6.8-5.07-2.61-8.55-5.1-17.13-7.63-25.71-1.45-4.93-2.89-9.85-4.31-14.79-1.18-4.08-.8-5.48,1.59-6.19,3.6-1.06,7.21.35,8.2,3.6,1.6,5.22,2.93,10.52,4.32,15.8,1.47,5.6,2.87,11.21,4.58,17.94Z"></path><path class="cls-1" d="m352.98,232.97c0-5.95-.1-11.07.03-16.19.1-3.82,2.58-5.69,6.26-4.97,2.18.43,3.62,1.61,3.68,4,.04,1.33.04,2.65.04,3.98,0,15.09,0,30.19,0,45.28q0,6.38,6.49,7.72c.13,1.28.43,2.71.4,4.13-.08,3.59-.84,4.19-4.45,4.47-4.46.34-8.25-.7-10.8-5.13-.81.57-1.44.98-2.04,1.44-11.84,9.23-27.64,4.71-32.93-9.34-3.17-8.42-3.25-16.77-.22-25.24,4.87-13.61,18.42-18.78,31-11.74.56.31,1.08.68,2.53,1.6Zm0,22.46c0-2.65.03-5.3-.02-7.95-.02-.98.08-2.17-.42-2.88-2.89-4.19-6.94-6.75-12.06-6.76-4.85-.01-8.55,2.45-10.62,6.9-3.33,7.18-3.3,14.42.1,21.57,2.46,5.17,7.74,7.41,13.8,6.04,6.03-1.37,9.21-5.14,9.23-10.96,0-1.99,0-3.97,0-5.96Z"></path><path class="cls-1" d="m215.9,233.03c6.44-4.57,13.08-6.11,20.46-3.61,7.68,2.61,11.56,8.57,13.82,15.81,2.57,8.22,2.07,16.36-1.46,24.26-5.52,12.38-18.5,16.6-30.26,9.86-.56-.32-1.15-.57-2.43-1.2,0,4.39.01,8.29,0,12.18,0,1.66.13,3.35-.15,4.96-.48,2.77-2.45,4.03-5.48,3.86-2.82-.16-4-1.32-4.3-4.4-.11-1.15-.06-2.32-.06-3.48,0-18.09,0-36.18,0-54.27,0-.5,0-1,0-1.49.03-2.33-.2-4.79,2.66-5.81,2.62-.94,4.79.01,7.21,3.33Zm.13,22.35c0,2.65-.13,5.3.05,7.94.1,1.41.38,3.1,1.23,4.13,3.39,4.13,7.87,5.88,13.22,5.07,5.19-.79,8.13-4.14,9.6-8.89,1.61-5.17,1.67-10.41.21-15.65-2.87-10.29-13.25-13.44-21.38-6.48-1.98,1.69-3.22,3.64-2.98,6.44.21,2.46.04,4.96.05,7.44Z"></path><path class="cls-1" d="m303.97,271.17c1.19.4,1.94.77,2.73.91,4.18.7,4.97,1.78,4.38,5.82-.31,2.13-1.43,3.29-3.57,3.42-4.43.28-8.75.25-11.44-4.24-7.51,6.43-15.84,6.25-24.23,4-7.05-1.89-11.09-8.48-10.65-16.09.41-6.98,5-12.29,12.29-13.62,3.56-.65,7.27-.48,10.89-.87,2.45-.26,4.89-.73,7.29-1.3,2.24-.53,2.89-2.32,2.17-4.24-.67-1.79-1.57-3.75-2.95-4.98-4.91-4.37-13.23-3.19-17.04,2.26-1.17,1.66-2.18,3.72-4.52,3.19-1.84-.41-3.89-1.26-5.13-2.59-1.54-1.66-.41-3.7.67-5.48,3.07-5.07,7.89-7.64,13.41-8.58,3.52-.6,7.37-.62,10.86.11,9.54,2,14.65,8.61,14.8,18.46.1,6.31.02,12.61.02,18.92,0,1.63,0,3.27,0,4.89Zm-9.92-12.96c-4.8.42-9.06.79-13.32,1.16-1.48.13-3.01.05-4.42.44-2.96.84-4.95,3.42-5.01,6.12-.05,2.53,1.58,4.68,4.51,5.9,4.68,1.95,9.33,1.73,13.97-.21,2.7-1.13,4.26-3.03,4.26-6.05,0-2.46,0-4.93,0-7.36Z"></path><path class="cls-1" d="m126.54,272.73c.21,1.3.53,2.42.54,3.55.02,3.95-.99,4.85-4.99,5.09-4.05.25-7.6-.62-10.2-4.2-6.95,6.03-14.94,6.16-23.08,4.13-11.59-2.89-15.66-16.97-7.56-25.69,3.39-3.64,7.96-4.57,12.65-4.96,2.31-.19,4.65-.06,6.97-.17,1.49-.07,3.01-.14,4.44-.5,4.74-1.2,5.94-5.06,2.84-8.9-3.91-4.83-13.3-4.98-17.37-.24-.64.75-1.06,1.68-1.66,2.47-1.95,2.55-4.49,2.89-7.42,1.05-2.45-1.54-2.8-3.33-1.15-6.38,2.52-4.68,6.64-7.21,11.61-8.67,6.71-1.97,13.27-1.51,19.26,1.97,5.56,3.23,8.19,8.58,8.34,14.97.15,6.31.07,12.62.09,18.93q.01,6.36,6.7,7.56Zm-16.83-14.36c-5.31.35-10.2.67-15.08,1.02-.81.06-1.65.15-2.42.41-2.95.99-4.8,3.42-4.82,6.19-.02,2.74,1.38,4.62,4.45,5.87,4.86,1.98,9.65,1.65,14.4-.46,1.96-.87,3.33-2.27,3.44-4.44.14-2.91.04-5.84.04-8.58Z"></path></g></g></svg>